<?xml version="1.0" encoding="UTF-8"?>
<!DOCTYPE svg PUBLIC "-//W3C//DTD SVG 1.1//EN" "http://www.w3.org/Graphics/SVG/1.1/DTD/svg11.dtd">
<svg xmlns="http://www.w3.org/2000/svg" version="1.1" width="257px" height="272px" style="shape-rendering:geometricPrecision; text-rendering:geometricPrecision; image-rendering:optimizeQuality; fill-rule:evenodd; clip-rule:evenodd" xmlns:xlink="http://www.w3.org/1999/xlink">
<g><path style="opacity:1" fill="#fbfbfb" d="M -0.5,-0.5 C 85.1667,-0.5 170.833,-0.5 256.5,-0.5C 256.5,87.5 256.5,175.5 256.5,263.5C 170.833,263.5 85.1667,263.5 -0.5,263.5C -0.5,175.5 -0.5,87.5 -0.5,-0.5 Z"/></g>
<g><path style="opacity:1" fill="#28cdbb" d="M 116.5,11.5 C 140.637,9.31529 158.137,18.982 169,40.5C 171.016,45.9883 171.849,51.655 171.5,57.5C 166.167,57.5 160.833,57.5 155.5,57.5C 152.419,40.5893 142.252,31.5893 125,30.5C 110.485,31.3383 100.818,38.6716 96,52.5C 95.5065,54.1341 95.3398,55.8008 95.5,57.5C 89.8333,57.5 84.1667,57.5 78.5,57.5C 80.6374,33.3707 93.3041,18.0374 116.5,11.5 Z"/></g>
<g><path style="opacity:1" fill="#8173f6" d="M 192.5,81.5 C 192.5,84.1667 192.5,86.8333 192.5,89.5C 191.849,88.9094 191.182,88.2427 190.5,87.5C 189.253,90.0601 188.253,92.7268 187.5,95.5C 185.227,94.6249 184.227,92.9582 184.5,90.5C 183.178,90.33 182.011,90.6634 181,91.5C 180.985,97.0836 179.318,102.084 176,106.5C 172.945,107.914 169.778,109.081 166.5,110C 168.301,110.317 168.634,110.984 167.5,112C 164.773,112.818 162.106,112.652 159.5,111.5C 161.274,110.813 162.941,109.98 164.5,109C 162.484,108.101 160.817,106.767 159.5,105C 158.552,104.517 157.552,104.351 156.5,104.5C 156.5,103.167 156.5,101.833 156.5,100.5C 154.608,98.4648 152.275,96.9648 149.5,96C 150.701,95.0975 151.535,93.9308 152,92.5C 152.307,88.9532 153.14,85.6199 154.5,82.5C 152.201,83.1379 150.034,84.1379 148,85.5C 147.517,84.552 147.351,83.552 147.5,82.5C 140.825,82.6663 134.158,82.4996 127.5,82C 128,81.5 128.5,81 129,80.5C 133.333,80.8333 137.667,81.1667 142,81.5C 145.466,80.798 148.966,80.1313 152.5,79.5C 153.478,79.9767 154.311,80.6433 155,81.5C 157.619,80.5351 159.619,78.8684 161,76.5C 163.453,77.4929 165.953,77.6595 168.5,77C 166.579,75.7592 166.246,74.2592 167.5,72.5C 168.814,73.3128 169.981,74.3128 171,75.5C 173.242,74.8253 175.409,75.3253 177.5,77C 181.199,77.3341 184.699,77.5008 188,77.5C 191.528,74.4435 191.028,72.2769 186.5,71C 176.775,70.6801 167.108,70.5135 157.5,70.5C 156.833,70.8333 156.167,71.1667 155.5,71.5C 156.85,73.0202 158.183,73.6869 159.5,73.5C 158.758,74.2868 157.925,74.9535 157,75.5C 132.284,74.7319 107.784,74.0652 83.5,73.5C 83.67,74.8221 83.3366,75.9887 82.5,77C 86.9002,77.9777 91.0669,77.4777 95,75.5C 95.9246,76.0465 96.7579,76.7132 97.5,77.5C 95.3449,78.0014 93.6782,79.0014 92.5,80.5C 86.5307,79.2071 80.5307,79.2071 74.5,80.5C 75.5521,78.744 77.2188,78.0773 79.5,78.5C 79.7692,76.5714 79.2692,74.9047 78,73.5C 75.876,74.2272 73.7094,74.8938 71.5,75.5C 69.2241,74.7868 66.8907,74.2868 64.5,74C 67.1768,73.7506 69.5101,72.7506 71.5,71C 67.8484,70.5014 64.1817,70.3347 60.5,70.5C 60.8893,73.5533 60.2227,76.22 58.5,78.5C 58.7233,75.2158 59.3899,72.0491 60.5,69C 103.833,68.3333 147.167,68.3333 190.5,69C 191.954,73.0087 192.621,77.1753 192.5,81.5 Z"/></g>
<g><path style="opacity:1" fill="#faf9fd" d="M 156.5,100.5 C 156.34,98.847 155.674,97.5137 154.5,96.5C 154.616,93.1401 154.949,89.8067 155.5,86.5C 157.5,85.1667 159.167,83.5 160.5,81.5C 165.628,80.0006 170.628,80.6673 175.5,83.5C 180.997,92.5513 178.997,99.3847 169.5,104C 164.326,105.461 159.993,104.294 156.5,100.5 Z"/></g>
<g><path style="opacity:1" fill="#bfb9fa" d="M 160.5,81.5 C 159.167,83.5 157.5,85.1667 155.5,86.5C 156.167,83.8333 157.833,82.1667 160.5,81.5 Z"/></g>
<g><path style="opacity:1" fill="#7a6cfa" d="M 74.5,80.5 C 73.5655,81.5676 73.2322,82.901 73.5,84.5C 71.4961,88.4894 71.1627,92.4894 72.5,96.5C 73.6737,97.5137 74.3404,98.847 74.5,100.5C 75.0813,102.997 76.5813,104.664 79,105.5C 86.9619,107.856 92.9619,105.523 97,98.5C 97.8007,95.633 97.6341,92.9664 96.5,90.5C 96.2241,87.2814 94.8907,84.6148 92.5,82.5C 92.5,81.8333 92.5,81.1667 92.5,80.5C 93.6782,79.0014 95.3449,78.0014 97.5,77.5C 96.7579,76.7132 95.9246,76.0465 95,75.5C 91.0669,77.4777 86.9002,77.9777 82.5,77C 83.3366,75.9887 83.67,74.8221 83.5,73.5C 107.784,74.0652 132.284,74.7319 157,75.5C 157.925,74.9535 158.758,74.2868 159.5,73.5C 158.183,73.6869 156.85,73.0202 155.5,71.5C 156.167,71.1667 156.833,70.8333 157.5,70.5C 167.108,70.5135 176.775,70.6801 186.5,71C 191.028,72.2769 191.528,74.4435 188,77.5C 184.699,77.5008 181.199,77.3341 177.5,77C 175.409,75.3253 173.242,74.8253 171,75.5C 169.981,74.3128 168.814,73.3128 167.5,72.5C 166.246,74.2592 166.579,75.7592 168.5,77C 165.953,77.6595 163.453,77.4929 161,76.5C 159.619,78.8684 157.619,80.5351 155,81.5C 154.311,80.6433 153.478,79.9767 152.5,79.5C 148.966,80.1313 145.466,80.798 142,81.5C 137.667,81.1667 133.333,80.8333 129,80.5C 128.5,81 128,81.5 127.5,82C 134.158,82.4996 140.825,82.6663 147.5,82.5C 147.351,83.552 147.517,84.552 148,85.5C 150.034,84.1379 152.201,83.1379 154.5,82.5C 153.14,85.6199 152.307,88.9532 152,92.5C 151.535,93.9308 150.701,95.0975 149.5,96C 152.275,96.9648 154.608,98.4648 156.5,100.5C 156.5,101.833 156.5,103.167 156.5,104.5C 157.552,104.351 158.552,104.517 159.5,105C 160.817,106.767 162.484,108.101 164.5,109C 162.941,109.98 161.274,110.813 159.5,111.5C 162.106,112.652 164.773,112.818 167.5,112C 168.634,110.984 168.301,110.317 166.5,110C 169.778,109.081 172.945,107.914 176,106.5C 179.318,102.084 180.985,97.0836 181,91.5C 182.011,90.6634 183.178,90.33 184.5,90.5C 184.227,92.9582 185.227,94.6249 187.5,95.5C 188.253,92.7268 189.253,90.0601 190.5,87.5C 191.182,88.2427 191.849,88.9094 192.5,89.5C 193.007,92.431 194.007,95.0977 195.5,97.5C 195.5,97.8333 195.5,98.1667 195.5,98.5C 195.24,104.194 196.24,109.527 198.5,114.5C 200.084,123.427 201.417,132.427 202.5,141.5C 202.333,147.503 203.333,153.17 205.5,158.5C 205.5,158.833 205.5,159.167 205.5,159.5C 205.227,165.216 206.227,170.549 208.5,175.5C 208.5,176.167 208.5,176.833 208.5,177.5C 208.702,186.483 210.035,195.15 212.5,203.5C 212.565,206.428 213.232,209.095 214.5,211.5C 214.5,212.167 214.5,212.833 214.5,213.5C 215.075,221.429 216.409,229.096 218.5,236.5C 218.5,239.5 218.5,242.5 218.5,245.5C 156.5,245.5 94.5,245.5 32.5,245.5C 32.3398,243.801 32.5065,242.134 33,240.5C 33.5556,242.595 34.0556,242.762 34.5,241C 34.1199,235.9 34.1199,230.734 34.5,225.5C 34.5,224.833 34.5,224.167 34.5,223.5C 35.3149,222.571 36.1482,221.571 37,220.5C 38.934,210.907 40.2674,201.24 41,191.5C 42.117,190.051 42.7837,188.384 43,186.5C 43.3589,189.544 44.0255,189.878 45,187.5C 45.1124,179.84 44.9457,172.173 44.5,164.5C 44.4013,161.763 44.7347,159.096 45.5,156.5C 46.4584,156.047 47.2917,155.381 48,154.5C 48.5769,147.5 49.0769,140.5 49.5,133.5C 49.5,133.167 49.5,132.833 49.5,132.5C 50.4584,132.047 51.2917,131.381 52,130.5C 52.5769,123.5 53.0769,116.5 53.5,109.5C 53.5,109.167 53.5,108.833 53.5,108.5C 54.793,107.158 55.6264,105.491 56,103.5C 57.032,95.5111 57.8654,87.5111 58.5,79.5C 58.5,79.1667 58.5,78.8333 58.5,78.5C 60.2227,76.22 60.8893,73.5533 60.5,70.5C 64.1817,70.3347 67.8484,70.5014 71.5,71C 69.5101,72.7506 67.1768,73.7506 64.5,74C 66.8907,74.2868 69.2241,74.7868 71.5,75.5C 73.7094,74.8938 75.876,74.2272 78,73.5C 79.2692,74.9047 79.7692,76.5714 79.5,78.5C 77.2188,78.0773 75.5521,78.744 74.5,80.5 Z"/></g>
<g><path style="opacity:1" fill="#b3abf6" d="M 76.5,83.5 C 73.1788,87.1353 71.8455,91.4686 72.5,96.5C 71.1627,92.4894 71.4961,88.4894 73.5,84.5C 74.391,83.8902 75.391,83.5569 76.5,83.5 Z"/></g>
<g><path style="opacity:1" fill="#faf9fd" d="M 92.5,82.5 C 94.8907,84.6148 96.2241,87.2814 96.5,90.5C 96.1792,101.666 90.5125,106.166 79.5,104C 77.6769,103.003 76.0103,101.836 74.5,100.5C 74.3404,98.847 73.6737,97.5137 72.5,96.5C 71.8455,91.4686 73.1788,87.1353 76.5,83.5C 78.3318,81.1058 80.8318,80.1058 84,80.5C 87.0244,80.4808 89.8577,81.1475 92.5,82.5 Z"/></g>
<g><path style="opacity:1" fill="#887cec" d="M 92.5,80.5 C 92.5,81.1667 92.5,81.8333 92.5,82.5C 89.8577,81.1475 87.0244,80.4808 84,80.5C 80.8318,80.1058 78.3318,81.1058 76.5,83.5C 75.391,83.5569 74.391,83.8902 73.5,84.5C 73.2322,82.901 73.5655,81.5676 74.5,80.5C 80.5307,79.2071 86.5307,79.2071 92.5,80.5 Z"/></g>
<g><path style="opacity:1" fill="#8f84ed" d="M 192.5,81.5 C 193.913,86.63 194.913,91.9633 195.5,97.5C 194.007,95.0977 193.007,92.431 192.5,89.5C 192.5,86.8333 192.5,84.1667 192.5,81.5 Z"/></g>
<g><path style="opacity:1" fill="#b7b1f5" d="M 155.5,86.5 C 154.949,89.8067 154.616,93.1401 154.5,96.5C 153.844,95.3784 153.511,94.0451 153.5,92.5C 153.361,90.1175 154.028,88.1175 155.5,86.5 Z"/></g>
<g><path style="opacity:1" fill="#9287ed" d="M 96.5,90.5 C 97.6341,92.9664 97.8007,95.633 97,98.5C 92.9619,105.523 86.9619,107.856 79,105.5C 76.5813,104.664 75.0813,102.997 74.5,100.5C 76.0103,101.836 77.6769,103.003 79.5,104C 90.5125,106.166 96.1792,101.666 96.5,90.5 Z"/></g>
<g><path style="opacity:1" fill="#8e82ed" d="M 58.5,79.5 C 57.8654,87.5111 57.032,95.5111 56,103.5C 55.6264,105.491 54.793,107.158 53.5,108.5C 54.8629,98.6513 56.5296,88.9847 58.5,79.5 Z"/></g>
<g><path style="opacity:1" fill="#a79cf1" d="M 195.5,98.5 C 197.129,103.591 198.129,108.924 198.5,114.5C 196.24,109.527 195.24,104.194 195.5,98.5 Z"/></g>
<g><path style="opacity:1" fill="#cec8f8" d="M 96.5,123.5 C 91.354,120.738 85.6873,119.738 79.5,120.5C 79.5,121.833 79.5,123.167 79.5,124.5C 79.1667,124.5 78.8333,124.5 78.5,124.5C 78.5,122.5 78.5,120.5 78.5,118.5C 84.1764,118.334 89.8431,118.501 95.5,119C 96.3802,120.356 96.7135,121.856 96.5,123.5 Z"/></g>
<g><path style="opacity:1" fill="#cfc9f9" d="M 171.5,127.5 C 171.5,125.167 171.5,122.833 171.5,120.5C 166.167,120.5 160.833,120.5 155.5,120.5C 155.663,122.857 155.497,125.19 155,127.5C 154.617,128.056 154.117,128.389 153.5,128.5C 154.265,125.904 154.599,123.237 154.5,120.5C 154.611,119.883 154.944,119.383 155.5,119C 160.833,118.333 166.167,118.333 171.5,119C 172.817,121.937 172.817,124.77 171.5,127.5 Z"/></g>
<g><path style="opacity:1" fill="#fcfbfd" d="M 96.5,123.5 C 97.3024,126.574 98.3024,129.574 99.5,132.5C 100.419,135.089 102.086,137.089 104.5,138.5C 111.877,145.738 120.543,148.072 130.5,145.5C 131.167,145.5 131.833,145.5 132.5,145.5C 136.42,144.873 139.753,143.207 142.5,140.5C 145.109,139.557 147.109,137.89 148.5,135.5C 149.921,132.991 151.588,130.657 153.5,128.5C 154.117,128.389 154.617,128.056 155,127.5C 155.497,125.19 155.663,122.857 155.5,120.5C 160.833,120.5 166.167,120.5 171.5,120.5C 171.5,122.833 171.5,125.167 171.5,127.5C 170.03,132.575 168.364,137.575 166.5,142.5C 164.178,143.802 162.845,145.802 162.5,148.5C 158.103,152.904 153.436,156.904 148.5,160.5C 145.088,161.075 142.088,162.408 139.5,164.5C 126.889,168.04 114.889,166.706 103.5,160.5C 100.705,159.937 98.3718,158.604 96.5,156.5C 91.4119,151.749 87.0785,146.415 83.5,140.5C 81.5532,135.325 80.2199,129.992 79.5,124.5C 79.5,123.167 79.5,121.833 79.5,120.5C 85.6873,119.738 91.354,120.738 96.5,123.5 Z"/></g>
<g><path style="opacity:1" fill="#897cf0" d="M 53.5,109.5 C 53.0769,116.5 52.5769,123.5 52,130.5C 51.2917,131.381 50.4584,132.047 49.5,132.5C 50.5295,124.651 51.8628,116.984 53.5,109.5 Z"/></g>
<g><path style="opacity:1" fill="#8577ed" d="M 154.5,120.5 C 154.599,123.237 154.265,125.904 153.5,128.5C 151.588,130.657 149.921,132.991 148.5,135.5C 148.682,133.409 148.348,131.409 147.5,129.5C 149.193,128.772 150.693,127.772 152,126.5C 152.037,124.026 152.87,122.026 154.5,120.5 Z"/></g>
<g><path style="opacity:1" fill="#c3bdf8" d="M 99.5,132.5 C 101.914,133.911 103.581,135.911 104.5,138.5C 102.086,137.089 100.419,135.089 99.5,132.5 Z"/></g>
<g><path style="opacity:1" fill="#a49cf2" d="M 78.5,124.5 C 78.8333,124.5 79.1667,124.5 79.5,124.5C 80.2199,129.992 81.5532,135.325 83.5,140.5C 81.9186,138.326 80.4186,135.993 79,133.5C 78.502,130.518 78.3354,127.518 78.5,124.5 Z"/></g>
<g><path style="opacity:1" fill="#9086e6" d="M 142.5,140.5 C 139.753,143.207 136.42,144.873 132.5,145.5C 135.569,143.299 138.902,141.632 142.5,140.5 Z"/></g>
<g><path style="opacity:1" fill="#958aed" d="M 104.5,138.5 C 105.873,138.343 107.207,138.51 108.5,139C 111.608,141.37 114.941,143.37 118.5,145C 122.486,145.499 126.486,145.666 130.5,145.5C 120.543,148.072 111.877,145.738 104.5,138.5 Z"/></g>
<g><path style="opacity:1" fill="#a296f3" d="M 166.5,142.5 C 165.702,144.966 164.369,146.966 162.5,148.5C 162.845,145.802 164.178,143.802 166.5,142.5 Z"/></g>
<g><path style="opacity:1" fill="#a095f0" d="M 202.5,141.5 C 203.951,146.959 204.951,152.626 205.5,158.5C 203.333,153.17 202.333,147.503 202.5,141.5 Z"/></g>
<g><path style="opacity:1" fill="#8a7fee" d="M 49.5,133.5 C 49.0769,140.5 48.5769,147.5 48,154.5C 47.2917,155.381 46.4584,156.047 45.5,156.5C 46.5295,148.651 47.8628,140.984 49.5,133.5 Z"/></g>
<g><path style="opacity:1" fill="#8e80ee" d="M 83.5,140.5 C 87.0785,146.415 91.4119,151.749 96.5,156.5C 93.6771,155.783 91.0104,154.783 88.5,153.5C 86.655,149.308 84.9883,144.975 83.5,140.5 Z"/></g>
<g><path style="opacity:1" fill="#9487ef" d="M 162.5,148.5 C 160.073,152.105 157.407,155.605 154.5,159C 152.482,159.505 150.482,160.005 148.5,160.5C 153.436,156.904 158.103,152.904 162.5,148.5 Z"/></g>
<g><path style="opacity:1" fill="#8c7fed" d="M 148.5,160.5 C 146.38,163.469 143.38,164.802 139.5,164.5C 142.088,162.408 145.088,161.075 148.5,160.5 Z"/></g>
<g><path style="opacity:1" fill="#887eea" d="M 103.5,160.5 C 114.889,166.706 126.889,168.04 139.5,164.5C 136.851,166.109 133.851,166.943 130.5,167C 124.5,167.667 118.5,167.667 112.5,167C 111.062,166.781 109.729,166.281 108.5,165.5C 106.606,164.055 104.94,162.388 103.5,160.5 Z"/></g>
<g><path style="opacity:1" fill="#a39af1" d="M 205.5,159.5 C 206.913,164.63 207.913,169.963 208.5,175.5C 206.227,170.549 205.227,165.216 205.5,159.5 Z"/></g>
<g><path style="opacity:1" fill="#8578f1" d="M 44.5,164.5 C 44.9457,172.173 45.1124,179.84 45,187.5C 44.0255,189.878 43.3589,189.544 43,186.5C 42.7837,188.384 42.117,190.051 41,191.5C 40.2674,201.24 38.934,210.907 37,220.5C 36.1482,221.571 35.3149,222.571 34.5,223.5C 37.3463,203.621 40.6796,183.954 44.5,164.5 Z"/></g>
<g><path style="opacity:1" fill="#998eee" d="M 208.5,177.5 C 210.842,185.883 212.175,194.549 212.5,203.5C 210.035,195.15 208.702,186.483 208.5,177.5 Z"/></g>
<g><path style="opacity:1" fill="#a89fee" d="M 212.5,203.5 C 214.04,205.838 214.706,208.505 214.5,211.5C 213.232,209.095 212.565,206.428 212.5,203.5 Z"/></g>
<g><path style="opacity:1" fill="#9f96ee" d="M 214.5,213.5 C 216.557,220.91 217.891,228.577 218.5,236.5C 216.409,229.096 215.075,221.429 214.5,213.5 Z"/></g>
<g><path style="opacity:1" fill="#8a7fec" d="M 34.5,225.5 C 34.1199,230.734 34.1199,235.9 34.5,241C 34.0556,242.762 33.5556,242.595 33,240.5C 32.5065,242.134 32.3398,243.801 32.5,245.5C 94.5,245.5 156.5,245.5 218.5,245.5C 156.336,246.499 94.0022,246.832 31.5,246.5C 31.5473,239.234 32.5473,232.234 34.5,225.5 Z"/></g>
<g><path style="opacity:1" fill="#eceff1" d="M -0.5,263.5 C 85.1667,263.5 170.833,263.5 256.5,263.5C 256.5,264.5 256.5,265.5 256.5,266.5C 170.833,266.5 85.1667,266.5 -0.5,266.5C -0.5,265.5 -0.5,264.5 -0.5,263.5 Z"/></g>
<g><path style="opacity:1" fill="#fefefe" d="M -0.5,266.5 C 85.1667,266.5 170.833,266.5 256.5,266.5C 256.5,268.167 256.5,269.833 256.5,271.5C 170.833,271.5 85.1667,271.5 -0.5,271.5C -0.5,269.833 -0.5,268.167 -0.5,266.5 Z"/></g>
</svg>